<svg xmlns="http://www.w3.org/2000/svg" xmlns:xlink="http://www.w3.org/1999/xlink" version="1.1" x="0px" y="0px" viewBox="0 0 100 125" enable-background="new 0 0 100 100" xml:space="preserve"><g><path d="M79,44c0-13.5-9.5-25.4-22.6-28.3C55.3,15.4,54.2,16.1,54,17.2c-0.3,1.1,0.4,2.2,1.5,2.399C66.8,22.1,75,32.4,75,44   c0,4.416-1.073,8.561-3.191,12.281C71.237,56.1,70.63,56,70,56c-3.3,0-6,2.7-6,6c0,0.821,0.168,1.605,0.47,2.32   c-1.807,1.31-3.743,2.331-5.847,3.104C57.518,63.699,54.074,61,50,61c-4.085,0-7.536,2.715-8.631,6.455   c-2.098-0.778-4.041-1.822-5.863-3.098C35.824,63.626,36,62.843,36,62c0-3.3-2.7-6-6-6c-0.639,0-1.231,0.115-1.795,0.305   C26.078,52.578,25,48.425,25,44c0-11.7,8-21.8,19.4-24.4c1.1-0.3,1.699-1.3,1.5-2.399C45.6,16.1,44.6,15.5,43.5,15.7   C30.3,18.8,21,30.4,21,44c0,5.338,1.331,10.293,3.968,14.694C24.334,59.645,24,60.779,24,62c0,3.3,2.7,6,6,6   c0.96,0,1.907-0.243,2.76-0.676c2.522,1.88,5.365,3.34,8.39,4.287C41.902,75.831,45.552,79,50,79c4.437,0,8.079-3.152,8.845-7.355   c2.986-1.04,5.79-2.445,8.341-4.353C68.026,67.742,68.984,68,70,68c3.3,0,6-2.7,6-6c0-1.209-0.365-2.335-0.986-3.279   C77.663,54.225,79,49.351,79,44z M26,62c0-1.3,0.5-2.4,1.5-3.2c0.7-0.5,1.6-0.8,2.5-0.8c2.2,0,4,1.8,4,4c0,1.1-0.4,2-1.1,2.8   C32.1,65.6,31.1,66,30,66C27.8,66,26,64.2,26,62z M57,70c0,3.9-3.1,7-7,7s-7-3.1-7-7v-0.2c0.1-3.7,3.2-6.8,7-6.8s6.9,3,7,6.8V70z    M70,66c-2.2,0-4-1.8-4-4s1.8-4,4-4s4,1.8,4,4S72.2,66,70,66z"/><path d="M50,65c-0.6,0-1,0.4-1,1s0.4,1,1,1c1.6,0,3,1.3,3,2.9V70c0,0.6,0.4,1,1,1s1-0.4,1-1v-0.1C54.9,67.2,52.7,65,50,65z"/></g><text x="0" y="115" fill="#000000" font-size="5px" font-weight="bold" font-family="'Helvetica Neue', Helvetica, Arial-Unicode, Arial, Sans-serif">Created by Giuditta Valentina Gentile</text><text x="0" y="120" fill="#000000" font-size="5px" font-weight="bold" font-family="'Helvetica Neue', Helvetica, Arial-Unicode, Arial, Sans-serif">from the Noun Project</text></svg>