<svg xmlns="http://www.w3.org/2000/svg" version="1.0" viewBox="0 0 256 320" preserveAspectRatio="xMidYMid meet" x="0px" y="0px"><metadata>
Created by potrace 1.13, written by Peter Selinger 2001-2015
</metadata><g transform="translate(0.000000,256.000000) scale(0.100000,-0.100000)" fill="#000000" stroke="none"><path d="M231 2389 c-60 -12 -114 -49 -135 -94 -35 -72 1 -209 110 -427 140 -278 395 -582 614 -730 48 -32 80 -61 83 -74 2 -12 -20 -79 -50 -149 l-53 -127 0 -115 0 -115 142 -199 c140 -194 144 -199 201 -224 83 -36 201 -36 284 0 57 25 61 30 201 224 l142 199 0 115 0 115 -53 127 c-30 70 -52 137 -50 149 3 13 35 42 83 74 219 148 474 452 614 730 83 166 117 264 119 347 2 85 -18 121 -91 157 l-47 23 -1035 1 c-569 1 -1055 -2 -1079 -7z m2039 -229 c0 -57 -136 -342 -216 -452 -102 -141 -286 -318 -407 -390 l-72 -43 -35 73 c-29 62 -43 80 -90 113 -30 21 -67 48 -81 60 -18 15 -41 21 -80 21 -51 1 -59 -2 -140 -60 -79 -58 -89 -68 -120 -135 l-34 -72 -72 43 c-121 72 -305 249 -407 390 -80 110 -216 395 -216 452 0 20 1 20 985 20 984 0 985 0 985 -20z m-934 -859 c28 -15 63 -73 97 -161 88 -227 121 -330 135 -425 l16 -101 -38 -63 c-20 -35 -63 -96 -95 -135 -32 -39 -66 -83 -75 -98 -17 -26 -23 -28 -90 -28 l-71 0 -47 63 c-26 34 -68 89 -92 122 -25 33 -54 71 -64 85 -18 23 -18 31 -7 130 14 112 31 173 115 400 74 203 131 259 216 211z"/></g><text x="0" y="271" fill="#000000" font-size="5px" font-weight="bold" font-family="'Helvetica Neue', Helvetica, Arial-Unicode, Arial, Sans-serif">Created by Veysel Kara</text><text x="0" y="276" fill="#000000" font-size="5px" font-weight="bold" font-family="'Helvetica Neue', Helvetica, Arial-Unicode, Arial, Sans-serif">from the Noun Project</text></svg>