<svg xmlns="http://www.w3.org/2000/svg" version="1.0" viewBox="0 0 256 320" preserveAspectRatio="xMidYMid meet" x="0px" y="0px"><metadata>
Created by potrace 1.13, written by Peter Selinger 2001-2015
</metadata><g transform="translate(0.000000,256.000000) scale(0.100000,-0.100000)" fill="#000000" stroke="none"><path d="M1153 2118 c-47 -9 -54 -13 -76 -53 -54 -97 -76 -175 -92 -333 -8 -84 -19 -162 -25 -172 -6 -11 -48 -64 -94 -118 -46 -54 -90 -109 -99 -123 -22 -34 -41 -216 -34 -324 12 -177 29 -237 101 -346 35 -55 66 -103 68 -107 2 -5 65 -46 141 -90 99 -59 148 -82 172 -82 18 0 116 25 217 56 102 32 215 60 256 64 85 9 104 22 136 94 l22 50 -39 245 -38 246 -104 283 -105 282 -145 207 c-80 114 -151 210 -158 214 -26 14 -54 16 -104 7z m230 -457 c40 -23 84 -93 92 -149 3 -26 11 -64 17 -85 8 -27 8 -47 0 -75 -6 -20 -16 -54 -23 -75 -21 -70 -81 -117 -152 -117 -46 0 -48 -1 -41 -22 13 -42 57 -89 106 -114 40 -20 48 -29 48 -52 0 -15 4 -32 9 -38 5 -5 11 -29 13 -53 3 -44 2 -45 -32 -52 -66 -14 -176 73 -224 177 -15 32 -32 67 -37 77 -5 9 -12 39 -16 65 -3 26 -11 53 -17 61 -6 8 -10 74 -11 170 0 141 2 160 22 196 27 51 72 94 109 104 37 11 101 3 137 -18z m263 -412 c34 -101 34 -106 23 -159 -21 -98 -75 -193 -92 -162 -3 4 -10 43 -17 87 -12 75 -12 83 7 120 12 22 26 66 33 98 13 65 28 70 46 16z"/><path d="M1273 1538 c-32 -15 -47 -60 -40 -121 8 -65 48 -107 101 -107 54 0 79 39 74 114 -4 53 -8 63 -41 92 -38 35 -57 40 -94 22z"/></g><text x="0" y="271" fill="#000000" font-size="5px" font-weight="bold" font-family="'Helvetica Neue', Helvetica, Arial-Unicode, Arial, Sans-serif">Created by Veysel Kara</text><text x="0" y="276" fill="#000000" font-size="5px" font-weight="bold" font-family="'Helvetica Neue', Helvetica, Arial-Unicode, Arial, Sans-serif">from the Noun Project</text></svg>